<svg width="320" height="56" viewBox="0 0 320 56" fill="none" xmlns="http://www.w3.org/2000/svg">
<path d="M0 4.92619H17.7852C22.0357 4.92619 25.7829 5.75666 29.0268 7.4176C32.3079 9.04079 34.8433 11.3434 36.633 14.3256C38.46 17.3077 39.3735 20.7806 39.3735 24.7442C39.3735 28.7078 38.46 32.1807 36.633 35.1628C34.8433 38.1449 32.3079 40.4665 29.0268 42.1274C25.7829 43.7506 22.0357 44.5622 17.7852 44.5622H0V4.92619ZM17.3378 37.0313C21.2527 37.0313 24.3661 35.9366 26.6778 33.7472C29.0268 31.5201 30.2013 28.519 30.2013 24.7442C30.2013 20.9693 29.0268 17.9872 26.6778 15.7978C24.3661 13.5706 21.2527 12.457 17.3378 12.457H9.06038V37.0313H17.3378Z" fill="#E0E5EB"/>
<path d="M113.28 14.0991V39.4661C113.28 45.0529 111.844 49.2052 108.973 51.9231C106.102 54.641 101.908 56 96.3893 56C93.481 56 90.7219 55.6414 88.1119 54.9242C85.5019 54.207 83.3394 53.1688 81.6242 51.8099L85.0918 45.4681C86.3595 46.5251 87.9628 47.3556 89.9016 47.9596C91.8404 48.6013 93.7793 48.9221 95.7181 48.9221C98.7383 48.9221 100.957 48.2238 102.374 46.8271C103.828 45.4682 104.555 43.392 104.555 40.5986V39.2962C102.28 41.8254 99.1111 43.09 95.047 43.09C92.2879 43.09 89.7525 42.486 87.4408 41.2781C85.1664 40.0324 83.358 38.2959 82.0157 36.0688C80.6734 33.8416 80.0023 31.2747 80.0023 28.368C80.0023 25.4614 80.6734 22.8945 82.0157 20.6673C83.358 18.4402 85.1664 16.7226 87.4408 15.5147C89.7525 14.269 92.2879 13.6461 95.047 13.6461C99.4094 13.6461 102.728 15.0994 105.002 18.006V14.0991H113.28ZM96.7808 35.8423C99.0925 35.8423 100.975 35.1628 102.43 33.8038C103.921 32.4072 104.667 30.5952 104.667 28.368C104.667 26.1409 103.921 24.3478 102.43 22.9889C100.975 21.5922 99.0925 20.8938 96.7808 20.8938C94.4691 20.8938 92.5675 21.5922 91.0761 22.9889C89.5847 24.3478 88.839 26.1409 88.839 28.368C88.839 30.5952 89.5847 32.4072 91.0761 33.8038C92.5675 35.1628 94.4691 35.8423 96.7808 35.8423Z" fill="#E0E5EB"/>
<path d="M157.642 44.5622L157.586 20.7806L146.064 40.3721H141.982L130.516 21.2902V44.5622H122.015V4.92619H129.51L144.163 29.5571L158.592 4.92619H166.031L166.143 44.5622H157.642Z" fill="#E0E5EB"/>
<path d="M230.871 43.09C230.014 43.7317 228.951 44.2224 227.683 44.5622C226.453 44.8642 225.148 45.0151 223.768 45.0151C220.189 45.0151 217.411 44.0903 215.435 42.2406C213.496 40.391 212.527 37.6731 212.527 34.087V21.5733H207.885V14.7786H212.527V7.36098H221.252V14.7786H228.746V21.5733H221.252V33.9737C221.252 35.2572 221.569 36.2575 222.202 36.9747C222.874 37.6542 223.806 37.9939 224.999 37.9939C226.378 37.9939 227.553 37.6164 228.522 36.8615L230.871 43.09Z" fill="#E0E5EB"/>
<path d="M235.769 14.0991H244.494V44.5622H235.769V14.0991ZM240.131 9.85237C238.528 9.85237 237.223 9.38052 236.216 8.43681C235.21 7.49309 234.706 6.32289 234.706 4.92619C234.706 3.5295 235.21 2.35928 236.216 1.41556C237.223 0.471849 238.528 0 240.131 0C241.735 0 243.04 0.452975 244.046 1.35894C245.053 2.26491 245.556 3.39738 245.556 4.75633C245.556 6.22852 245.053 7.45534 244.046 8.43681C243.04 9.38052 241.735 9.85237 240.131 9.85237Z" fill="#E0E5EB"/>
<path d="M307.528 13.6461C311.257 13.6461 314.258 14.7785 316.532 17.0435C318.844 19.3084 320 22.668 320 27.1224V44.5622H311.275V28.4813C311.275 26.0654 310.753 24.2723 309.709 23.1021C308.665 21.8942 307.155 21.2902 305.179 21.2902C302.979 21.2902 301.227 21.9885 299.922 23.3852C298.617 24.7442 297.964 26.7826 297.964 29.5005V44.5622H289.239V14.0991H297.573V17.6663C298.729 16.3829 300.164 15.4014 301.879 14.7219C303.594 14.0047 305.477 13.6461 307.528 13.6461Z" fill="#E0E5EB"/>
<path d="M60.0641 20.5359C52.5631 20.5359 46.4618 26.0347 46.4618 32.7898C46.4612 39.5449 52.5625 45.0151 60.0641 45.0151C67.5652 45.0151 73.6664 39.5164 73.6664 32.7713C73.6664 26.0255 67.5652 20.5359 60.0641 20.5359Z" fill="#E0E5EB"/>
<path d="M49.3381 15.5775C51.098 17.1417 51.2725 19.8542 49.7275 21.6365C48.1819 23.4181 45.5033 23.5943 43.7428 22.0301C41.983 20.4659 41.8091 17.7534 43.354 15.9717C44.899 14.19 47.5783 14.0133 49.3381 15.5775Z" fill="#E0E5EB"/>
<path d="M58.7637 11.9886C59.338 14.2871 57.963 16.6218 55.6926 17.2038C53.4222 17.7853 51.1162 16.3933 50.5419 14.0946C49.9669 11.7961 51.3419 9.4614 53.6124 8.87996C55.8828 8.29852 58.1888 9.68996 58.7637 11.9886Z" fill="#E0E5EB"/>
<path d="M65.386 8.73148C67.6668 9.27051 69.0836 11.579 68.5512 13.8881C68.0188 16.1972 65.7386 17.6316 63.4578 17.0926C61.1771 16.5535 59.7602 14.245 60.2926 11.9359C60.8251 9.62684 63.1052 8.19246 65.386 8.73148Z" fill="#E0E5EB"/>
<path d="M75.8144 15.5299C77.4163 17.2597 77.3296 19.9764 75.6209 21.5982C73.9128 23.2195 71.2288 23.1322 69.6275 21.4023C68.0256 19.6724 68.1123 16.9557 69.8211 15.3339C71.5297 13.7121 74.2131 13.7999 75.8144 15.5299Z" fill="#E0E5EB"/>
<path d="M267.064 20.5359C259.563 20.5359 253.462 26.0347 253.462 32.7898C253.461 39.5449 259.563 45.0151 267.064 45.0151C274.565 45.0151 280.666 39.5164 280.666 32.7713C280.666 26.0255 274.565 20.5359 267.064 20.5359Z" fill="#E0E5EB"/>
<path d="M256.338 15.5775C258.098 17.1417 258.273 19.8542 256.728 21.6365C255.182 23.4181 252.503 23.5943 250.743 22.0301C248.983 20.4659 248.809 17.7534 250.354 15.9717C251.899 14.19 254.578 14.0133 256.338 15.5775Z" fill="#E0E5EB"/>
<path d="M265.764 11.9886C266.338 14.2871 264.963 16.6218 262.693 17.2038C260.422 17.7853 258.116 16.3933 257.542 14.0946C256.967 11.7961 258.342 9.4614 260.612 8.87996C262.883 8.29852 265.189 9.68996 265.764 11.9886Z" fill="#E0E5EB"/>
<path d="M272.386 8.73148C274.667 9.27051 276.084 11.579 275.551 13.8881C275.019 16.1972 272.739 17.6316 270.458 17.0926C268.177 16.5535 266.76 14.245 267.293 11.9359C267.825 9.62684 270.105 8.19246 272.386 8.73148Z" fill="#E0E5EB"/>
<path d="M282.814 15.5299C284.416 17.2597 284.33 19.9764 282.621 21.5982C280.913 23.2195 278.229 23.1322 276.628 21.4023C275.026 19.6724 275.112 16.9557 276.821 15.3339C278.53 13.7121 281.213 13.7999 282.814 15.5299Z" fill="#E0E5EB"/>
<path d="M189.289 20.6844C181.788 20.6844 175.687 26.1832 175.687 32.9383C175.686 39.6934 181.787 45.1636 189.289 45.1636C196.79 45.1636 202.891 39.6649 202.891 32.9198C202.891 26.174 196.79 20.6844 189.289 20.6844Z" fill="#E0E5EB"/>
<path d="M178.563 15.726C180.323 17.2902 180.497 20.0026 178.952 21.7849C177.407 23.5666 174.728 23.7427 172.968 22.1786C171.208 20.6144 171.034 17.9019 172.579 16.1202C174.124 14.3385 176.803 14.1618 178.563 15.726Z" fill="#E0E5EB"/>
<path d="M187.989 12.1371C188.563 14.4356 187.188 16.7703 184.917 17.3523C182.647 17.9338 180.341 16.5418 179.767 14.2431C179.192 11.9446 180.567 9.60989 182.837 9.02844C185.108 8.447 187.414 9.83845 187.989 12.1371Z" fill="#E0E5EB"/>
<path d="M194.611 8.87996C196.892 9.41899 198.308 11.7275 197.776 14.0366C197.244 16.3457 194.963 17.7801 192.683 17.2411C190.402 16.702 188.985 14.3935 189.518 12.0844C190.05 9.77532 192.33 8.34094 194.611 8.87996Z" fill="#E0E5EB"/>
<path d="M205.039 15.6783C206.641 17.4082 206.554 20.1249 204.846 21.7467C203.138 23.368 200.454 23.2807 198.852 21.5508C197.25 19.8209 197.337 17.1042 199.046 15.4824C200.755 13.8605 203.438 13.9484 205.039 15.6783Z" fill="#E0E5EB"/>
</svg>
